<svg xmlns="http://www.w3.org/2000/svg" viewBox="6 -13 500 500"><rect width="100%" height="100%" fill="#fff"></rect><path d="M241 348 Q330 316 299 283 Q268 250 292.5 296 Q317 342 355 271.5 Q393 201 317 179.5 Q241 158 267 225.5 Q293 293 318.5 208.5 Q344 124 252.5 126.5 Q161 129 186.5 204 Q212 279 229 219.5 Q246 160 184 189.5 Q122 219 155.5 265.5 Q189 312 198.5 282 Q208 252 195.5 296 Q183 340 223.5 331.5 Q264 323 258 305.5" style="stroke:hsl(229, 99%, 50%); stroke-width:5px; fill: none;"></path></svg>