<svg xmlns="http://www.w3.org/2000/svg" viewBox="-11 6 500 500"><rect x="-250" y="-250" width="1000" height="1000" fill="#fff"></rect><path d="M247 287 Q261 417 309 323.5 Q357 230 315 214.5 Q273 199 322 264.5 Q371 330 351 251.5 Q331 173 253.5 155.5 Q176 138 258 179 Q340 220 309 194.5 Q278 169 179 185 Q80 201 150 202 Q220 203 232.5 214.5 Q245 226 187.5 278.5 Q130 331 143 300 Q156 269 202.5 278 Q249 287 279 332 Q309 377 257.5 340" style="stroke:hsl(295, 95%, 54%); stroke-width:3px; fill: none;"></path></svg>