<svg xmlns="http://www.w3.org/2000/svg" viewBox="4 1 500 500"><rect x="-250" y="-250" width="1000" height="1000" fill="#fff"></rect><path d="M329 310 Q237 292 265.5 310.5 Q294 329 343.5 290 Q393 251 332 230 Q271 209 282 224.5 Q293 240 323.5 206.5 Q354 173 279.5 161.5 Q205 150 206.5 182.5 Q208 215 236.5 200.5 Q265 186 197.5 190.5 Q130 195 144.5 241.5 Q159 288 203.5 281.5 Q248 275 200.5 277.5 Q153 280 183.5 318.5 Q214 357 269.5 337.5" style="stroke:hsl(59, 79%, 46%); stroke-width:4px; fill: none;"></path></svg>