<svg xmlns="http://www.w3.org/2000/svg" viewBox="5 5 500 500"><rect x="-250" y="-250" width="1000" height="1000" fill="#fff"></rect><path d="M228 361 Q263 269 322 282.5 Q381 296 333 295.5 Q285 295 290.5 239.5 Q296 184 334 197.5 Q372 211 305.5 213 Q239 215 235 173 Q231 131 257.5 162.5 Q284 194 216.5 212 Q149 230 156.5 205.5 Q164 181 200.5 227 Q237 273 186.5 294.5 Q136 316 166 290.5 Q196 265 244.5 303.5 Q293 342 253 346" style="stroke:hsl(295, 70%, 54%); stroke-width:5px; fill: none;"></path></svg>