<svg xmlns="http://www.w3.org/2000/svg" viewBox="-8 6 500 500"><rect x="-250" y="-250" width="1000" height="1000" fill="#fff"></rect><path d="M241 358 Q262 320 300.5 285.5 Q339 251 331.5 277 Q324 303 316.5 272 Q309 241 310 203 Q311 165 306.5 195 Q302 225 283.5 201.5 Q265 178 235.5 159 Q206 140 211.5 184.5 Q217 229 211.5 219.5 Q206 210 171.5 212.5 Q137 215 161.5 263.5 Q186 312 208.5 299 Q231 286 205.5 293 Q180 300 213 331" style="stroke:hsl(56, 87%, 48%); stroke-width:4px; fill: none;"></path></svg>