<svg xmlns="http://www.w3.org/2000/svg" viewBox="-3 15 500 500"><rect x="-250" y="-250" width="1000" height="1000" fill="#fff"></rect><path d="M250 384 Q266 290 294.5 280 Q323 270 319.5 300.5 Q316 331 314.5 272.5 Q313 214 323.5 197.5 Q334 181 309 214.5 Q284 248 270 199 Q256 150 255.5 147 Q255 144 222.5 196.5 Q190 249 184 218.5 Q178 188 188.5 198.5 Q199 209 179 271 Q159 333 175.5 305 Q192 277 219 280 Q246 283 236 333.5" style="stroke:hsl(21, 84%, 48%); stroke-width:4px; fill: none;"></path></svg>